<svg xmlns="http://www.w3.org/2000/svg" xmlns:svg="http://www.w3.org/2000/svg" id="svg4216" width="48" height="48" version="1.1" viewBox="0 0 48 48"><metadata id="metadata4221"/><g id="layer1" transform="translate(0,-16)"><rect style="opacity:1;fill:#fff;fill-opacity:1;fill-rule:nonzero;stroke:#b6c1c9;stroke-width:.5;stroke-linecap:square;stroke-linejoin:round;stroke-miterlimit:4;stroke-dasharray:none;stroke-dashoffset:4;stroke-opacity:1" id="rect4173" width="28" height="29" x="-38" y="26" transform="scale(-1,1)"/><rect style="opacity:1;fill:#464d56;fill-opacity:1;fill-rule:nonzero;stroke:none;stroke-width:.5;stroke-linecap:square;stroke-linejoin:round;stroke-miterlimit:4;stroke-dasharray:none;stroke-dashoffset:4;stroke-opacity:1" id="rect4177" width="24" height="22" x="-36" y="28" transform="scale(-1,1)"/><rect style="opacity:1;fill:#fff;fill-opacity:1;fill-rule:nonzero;stroke:#b6c1c9;stroke-width:.5;stroke-linecap:square;stroke-linejoin:round;stroke-miterlimit:4;stroke-dasharray:none;stroke-dashoffset:4;stroke-opacity:1" id="rect4154" width="28" height="28" x="-45" y="33" transform="scale(-1,1)"/><rect style="opacity:1;fill:#e0e4e7;fill-opacity:1;fill-rule:nonzero;stroke:none;stroke-width:.5;stroke-linecap:square;stroke-linejoin:round;stroke-miterlimit:4;stroke-dasharray:none;stroke-dashoffset:4;stroke-opacity:1" id="rect4175" width="24" height="21" x="-43" y="35" transform="scale(-1,1)"/><path style="fill:#b6c1c9;fill-rule:evenodd;stroke:none;stroke-width:1px;stroke-linecap:butt;stroke-linejoin:miter;stroke-opacity:1;fill-opacity:1" id="path4221" d="m 31,56 8,-9 4,4 0,5 z"/><path style="fill:#8698a6;fill-rule:evenodd;stroke:none;stroke-width:1px;stroke-linecap:butt;stroke-linejoin:miter;stroke-opacity:1;fill-opacity:1" id="path4219" d="M 19,56 31,44 43,56 Z"/><rect style="opacity:1;fill:#fff;fill-opacity:1;fill-rule:nonzero;stroke:#b6c1c9;stroke-width:.5;stroke-linecap:square;stroke-linejoin:round;stroke-miterlimit:4;stroke-dasharray:none;stroke-dashoffset:4;stroke-opacity:1" id="rect4156" width="28" height="28" x="-31" y="19" transform="scale(-1,1)"/><rect style="opacity:1;fill:#c0f4dd;fill-opacity:1;fill-rule:nonzero;stroke:none;stroke-width:.5;stroke-linecap:square;stroke-linejoin:round;stroke-miterlimit:4;stroke-dasharray:none;stroke-dashoffset:4;stroke-opacity:1" id="rect4179" width="24" height="21" x="-29" y="21" transform="scale(-1,1)"/><circle style="opacity:1;fill:#b6c1c9;fill-opacity:1;fill-rule:nonzero;stroke:none;stroke-width:.5;stroke-linecap:square;stroke-linejoin:round;stroke-miterlimit:4;stroke-dasharray:none;stroke-dashoffset:4;stroke-opacity:1" id="path4225" cx="39" cy="40" r="2"/><path style="fill:#99cef3;fill-opacity:1;fill-rule:evenodd;stroke:none;stroke-width:1px;stroke-linecap:butt;stroke-linejoin:miter;stroke-opacity:1" id="path4264" d="m 5,42 24,0 0,-13 C 15,29 16,38 5,38"/><path style="fill:#6caace;fill-opacity:1;fill-rule:evenodd;stroke:none;stroke-width:1px;stroke-linecap:butt;stroke-linejoin:miter;stroke-opacity:1" id="path4260" d="m 5,42 c 13,0 11,-9 24,-9 l 0,9 z"/></g></svg>