<svg xmlns="http://www.w3.org/2000/svg" xmlns:svg="http://www.w3.org/2000/svg" id="svg4216" width="48" height="48" version="1.1" viewBox="0 0 48 48"><metadata id="metadata4221"/><g id="layer1" transform="translate(0,-16)"><circle style="opacity:1;fill:#464d56;fill-opacity:1;fill-rule:nonzero;stroke:#b6c1c9;stroke-width:.5;stroke-linecap:round;stroke-linejoin:round;stroke-miterlimit:4;stroke-dasharray:none;stroke-dashoffset:0;stroke-opacity:1" id="path4164" cx="24.065" cy="40.003" r="13.11"/><path style="font-style:normal;font-variant:normal;font-weight:400;font-stretch:normal;font-size:medium;line-height:125%;font-family:'Open Sans';-inkscape-font-specification:'Open Sans';letter-spacing:0;word-spacing:0;fill:#e0e4e7;fill-opacity:1;stroke:#b6c1c9;stroke-width:.5;stroke-linecap:butt;stroke-linejoin:miter;stroke-miterlimit:4;stroke-dasharray:none;stroke-opacity:1" id="path4157-0" d="m 24.0655,19.018208 c -0.808342,0 -1.607807,0.04566 -2.397775,0.137574 l -0.715959,5.152127 c -1.230881,0.238828 -2.434934,0.62681 -3.610703,1.159581 l -3.470317,-3.610696 c -1.396224,0.826711 -2.684817,1.828469 -3.860587,3.004237 l 2.316352,4.270511 c -0.863465,0.936942 -1.597788,1.955302 -2.204044,3.057582 L 5.5739957,31.335583 C 4.8942547,32.878781 4.4079346,34.49712 4.1139915,36.18729 l 4.0795863,1.900812 c -0.073484,0.643 -0.1123081,1.276185 -0.1123081,1.900806 0,0.624632 0.038823,1.257823 0.1123081,1.900819 l -4.0795863,1.928891 c 0.2939431,1.671794 0.7802632,3.280429 1.4600042,4.823619 l 4.5484713,-0.853539 c 0.606256,1.120657 1.340579,2.139014 2.204044,3.05759 l -2.316352,4.270505 c 1.17577,1.175769 2.464363,2.18723 3.860587,3.032311 l 3.470317,-3.635969 c 1.175769,0.532773 2.379822,0.927648 3.610703,1.184861 l 0.715959,5.124043 c 0.789968,0.110226 1.589433,0.165651 2.397775,0.165651 0.808339,0 1.607806,-0.05547 2.397775,-0.165651 l 0.715962,-5.124043 c 1.230883,-0.257213 2.43493,-0.652088 3.6107,-1.184861 l 3.470318,3.635969 c 1.396224,-0.845081 2.684817,-1.856542 3.860586,-3.032311 l -2.316352,-4.270505 c 0.863456,-0.936939 1.597788,-1.955297 2.204044,-3.05759 l 4.548472,0.853539 c 0.679742,-1.54319 1.166062,-3.151825 1.460004,-4.823619 l -4.079586,-1.928891 c 0.07346,-0.642996 0.112316,-1.276187 0.112316,-1.900819 0,-0.624621 -0.03889,-1.257806 -0.112316,-1.900806 l 4.079586,-1.900812 c -0.293942,-1.69017 -0.780262,-3.308509 -1.460004,-4.851707 l -4.548472,0.853541 c -0.606256,-1.10228 -1.340588,-2.110936 -2.204044,-3.029505 l 2.316352,-4.298588 c -1.175769,-1.175768 -2.464362,-2.177526 -3.860586,-3.004237 l -3.470318,3.63597 c -1.17577,-0.551145 -2.379817,-0.946023 -3.6107,-1.184851 l -0.715962,-5.152127 c -0.789969,-0.0919 -1.589436,-0.137574 -2.397775,-0.137574 z m 0,8.847061 c 3.343592,0 6.19919,1.191537 8.569098,3.579818 2.369906,2.369911 3.557354,5.228312 3.557354,8.571905 0,3.325216 -1.187448,6.173918 -3.557354,8.543822 -2.369906,2.369908 -5.225506,3.554546 -8.569098,3.554546 -3.343592,0 -6.199193,-1.184638 -8.569097,-3.554546 -2.369904,-2.369904 -3.557355,-5.218606 -3.557355,-8.543822 0,-3.343593 1.187451,-6.201994 3.557355,-8.571905 2.369904,-2.388281 5.225505,-3.579818 8.569097,-3.579818 z m 0,7.934558 A 4.202371,4.202371 0 0 0 19.862373,40.002954 4.202371,4.202371 0 0 0 24.0655,44.20608 4.202371,4.202371 0 0 0 28.268627,40.002954 4.202371,4.202371 0 0 0 24.0655,35.799827 Z"/></g></svg>