<svg xmlns="http://www.w3.org/2000/svg" xmlns:svg="http://www.w3.org/2000/svg" id="svg4216" width="48" height="48" version="1.1" viewBox="0 0 48 48"><metadata id="metadata4221"/><g id="layer1" transform="translate(0,-16)"><g id="g4304" transform="translate(13,-12)"><path id="rect4179-9" d="m 1,31 23,0 9,8 0,34 -32,0 z" style="opacity:1;fill:#fff;fill-opacity:1;fill-rule:nonzero;stroke:#b6c1c9;stroke-width:.5;stroke-linecap:butt;stroke-linejoin:miter;stroke-miterlimit:4;stroke-dasharray:none;stroke-dashoffset:5;stroke-opacity:1"/><path id="path4190" d="m 24,31 0,8 9,0" style="fill:none;fill-rule:evenodd;stroke:#b6c1c9;stroke-width:.5;stroke-linecap:butt;stroke-linejoin:miter;stroke-miterlimit:4;stroke-dasharray:none;stroke-opacity:1"/><path id="path4192" d="m 6,37 10,0" style="fill:none;fill-rule:evenodd;stroke:#b6c1c9;stroke-width:.5;stroke-linecap:butt;stroke-linejoin:miter;stroke-miterlimit:4;stroke-dasharray:none;stroke-opacity:1"/><path id="path4202" d="m 6,39 9,0" style="fill:none;fill-rule:evenodd;stroke:#b6c1c9;stroke-width:.5;stroke-linecap:butt;stroke-linejoin:miter;stroke-miterlimit:4;stroke-dasharray:none;stroke-opacity:1"/><path id="path4204" d="m 6,44 22,0" style="fill:none;fill-rule:evenodd;stroke:#b6c1c9;stroke-width:.5;stroke-linecap:butt;stroke-linejoin:miter;stroke-miterlimit:4;stroke-dasharray:none;stroke-opacity:1"/><path id="path4208" d="m 6,46 22,0" style="fill:none;fill-rule:evenodd;stroke:#b6c1c9;stroke-width:.5;stroke-linecap:butt;stroke-linejoin:miter;stroke-miterlimit:4;stroke-dasharray:none;stroke-opacity:1"/><path id="path4212" d="m 6,48 22,0" style="fill:none;fill-rule:evenodd;stroke:#b6c1c9;stroke-width:.5;stroke-linecap:butt;stroke-linejoin:miter;stroke-miterlimit:4;stroke-dasharray:none;stroke-opacity:1"/><path id="path4218" d="m 6,50 22,0" style="fill:none;fill-rule:evenodd;stroke:#b6c1c9;stroke-width:.5;stroke-linecap:butt;stroke-linejoin:miter;stroke-miterlimit:4;stroke-dasharray:none;stroke-opacity:1"/><path id="path4220" d="m 6,60 22,0" style="fill:none;fill-rule:evenodd;stroke:#b6c1c9;stroke-width:.5;stroke-linecap:butt;stroke-linejoin:miter;stroke-miterlimit:4;stroke-dasharray:none;stroke-opacity:1"/><path id="path4224" d="m 6,62 22,0" style="fill:none;fill-rule:evenodd;stroke:#b6c1c9;stroke-width:.5;stroke-linecap:butt;stroke-linejoin:miter;stroke-miterlimit:4;stroke-dasharray:none;stroke-opacity:1"/><path id="path4228" d="m 6,64 22,0" style="fill:none;fill-rule:evenodd;stroke:#b6c1c9;stroke-width:.5;stroke-linecap:butt;stroke-linejoin:miter;stroke-miterlimit:4;stroke-dasharray:none;stroke-opacity:1"/><path id="path4232" d="m 6,66 13,0" style="fill:none;fill-rule:evenodd;stroke:#b6c1c9;stroke-width:.5;stroke-linecap:butt;stroke-linejoin:miter;stroke-miterlimit:4;stroke-dasharray:none;stroke-opacity:1"/><path id="path4164" d="m 6,55 22,0" style="fill:none;fill-rule:evenodd;stroke:#b6c1c9;stroke-width:.5;stroke-linecap:butt;stroke-linejoin:miter;stroke-miterlimit:4;stroke-dasharray:none;stroke-opacity:1"/><path id="path4162" d="m 6,53 22,0" style="fill:none;fill-rule:evenodd;stroke:#b6c1c9;stroke-width:.5;stroke-linecap:butt;stroke-linejoin:miter;stroke-miterlimit:4;stroke-dasharray:none;stroke-opacity:1"/><path id="path4166" d="m 6,57 22,0" style="fill:none;fill-rule:evenodd;stroke:#b6c1c9;stroke-width:.5;stroke-linecap:butt;stroke-linejoin:miter;stroke-miterlimit:4;stroke-dasharray:none;stroke-opacity:1"/></g><path style="opacity:1;fill:#99cef3;fill-opacity:1;fill-rule:nonzero;stroke:#6caace;stroke-width:.5;stroke-linecap:butt;stroke-linejoin:miter;stroke-miterlimit:4;stroke-dasharray:none;stroke-dashoffset:5;stroke-opacity:1" id="rect4179" d="m 3,19 32,0 0,8 0,34 -32,0 z"/><path style="fill:#6caace;fill-opacity:1;fill-rule:evenodd;stroke:none;stroke-width:1px;stroke-linecap:butt;stroke-linejoin:miter;stroke-opacity:1" id="path4156" d="m 21,19 14,0 0,14 z"/><g style="font-style:normal;font-variant:normal;font-weight:700;font-stretch:normal;font-size:5px;line-height:125%;font-family:'Work Sans';-inkscape-font-specification:'Work Sans, Bold';text-align:start;letter-spacing:0;word-spacing:0;writing-mode:lr-tb;text-anchor:start;fill:#fff;fill-opacity:1;stroke:none;stroke-width:1px;stroke-linecap:butt;stroke-linejoin:miter;stroke-opacity:1" id="text4174" transform="matrix(4.4986226,0,0,4.4986226,66.257163,-130.9449)"><path id="path4179" d="m -10.65,38.4 0.145,-0.805 0.01,0 0.15,0.805 0.39,1.6 0.935,0 0.955,-3.3 -0.89,0 -0.545,2.62 -0.605,-2.62 -0.78,0 -0.595,2.625 -0.545,-2.625 -0.925,0 0.95,3.3 0.965,0 0.385,-1.6 z" style="fill:#fff"/></g></g></svg>