<svg xmlns="http://www.w3.org/2000/svg" xmlns:svg="http://www.w3.org/2000/svg" id="svg4216" width="48" height="48" version="1.1" viewBox="0 0 48 48"><title id="title4151">Boston Icons</title><metadata id="metadata4221"/><g id="layer1" transform="translate(0,-16)"><path style="opacity:.98999999;fill:#e0e4e7;fill-opacity:1;fill-rule:nonzero;stroke:#b6c1c9;stroke-width:.5;stroke-linecap:butt;stroke-linejoin:miter;stroke-miterlimit:4;stroke-dasharray:none;stroke-dashoffset:0;stroke-opacity:1" id="path4182" d="M 24,3 C 12.40202,3 3,12.40202 3,24 3,35.59798 12.40202,45 24,45 35.59798,45 45,35.59798 45,24 45,12.40202 35.59798,3 24,3 Z m 0,14 c 3.865993,0 7,3.134007 7,7 0,3.865993 -3.134007,7 -7,7 -3.865993,0 -7,-3.134007 -7,-7 0,-3.865993 3.134007,-7 7,-7 z" transform="translate(0,16)"/><path style="opacity:1;fill:#fff;fill-opacity:1;fill-rule:nonzero;stroke:#b6c1c9;stroke-width:.5;stroke-linecap:square;stroke-linejoin:round;stroke-miterlimit:4;stroke-dasharray:none;stroke-dashoffset:0;stroke-opacity:1" id="path4152" d="M 24 17 A 7 7 0 0 0 17 24 A 7 7 0 0 0 24 31 A 7 7 0 0 0 31 24 A 7 7 0 0 0 24 17 z M 24 21 A 3 3 0 0 1 27 24 A 3 3 0 0 1 24 27 A 3 3 0 0 1 21 24 A 3 3 0 0 1 24 21 z" transform="translate(0,16)"/><path style="opacity:1;fill:#84e4b6;fill-opacity:1;fill-rule:nonzero;stroke:#6acb9c;stroke-width:.5;stroke-linecap:square;stroke-linejoin:round;stroke-miterlimit:4;stroke-dasharray:none;stroke-dashoffset:0;stroke-opacity:1" id="rect4153" d="M 32 28 L 32 30 L 32 32 L 32 37.541016 A 4 4 0 0 0 30 37 A 4 4 0 0 0 26 41 A 4 4 0 0 0 30 45 A 4 4 0 0 0 34 41 L 34 32 L 43 32 L 43 37.541016 A 4 4 0 0 0 41 37 A 4 4 0 0 0 37 41 A 4 4 0 0 0 41 45 A 4 4 0 0 0 45 41 L 45 32 L 45 30 L 45 28 L 32 28 z" transform="translate(0,16)"/></g></svg>