<?xml version="1.0" encoding="UTF-8" standalone="no"?>
<!-- Created with Inkscape (http://www.inkscape.org/) -->

<svg
   xmlns:dc="http://purl.org/dc/elements/1.1/"
   xmlns:cc="http://creativecommons.org/ns#"
   xmlns:rdf="http://www.w3.org/1999/02/22-rdf-syntax-ns#"
   xmlns:svg="http://www.w3.org/2000/svg"
   xmlns="http://www.w3.org/2000/svg"
   xmlns:sodipodi="http://sodipodi.sourceforge.net/DTD/sodipodi-0.dtd"
   xmlns:inkscape="http://www.inkscape.org/namespaces/inkscape"
   width="48"
   height="48"
   id="svg4216"
   version="1.1"
   inkscape:version="0.91 r13725"
   viewBox="0 0 48 48"
   sodipodi:docname="applications-system.svg">
  <defs
     id="defs4218" />
  <sodipodi:namedview
     id="base"
     pagecolor="#242424"
     bordercolor="#666666"
     borderopacity="1.0"
     inkscape:pageopacity="0"
     inkscape:pageshadow="2"
     inkscape:zoom="11"
     inkscape:cx="25.605201"
     inkscape:cy="23.512934"
     inkscape:current-layer="layer1"
     showgrid="false"
     inkscape:document-units="px"
     inkscape:grid-bbox="true"
     showguides="false"
     inkscape:guide-bbox="true"
     objecttolerance="10000"
     guidetolerance="10000"
     inkscape:snap-path-clip="true"
     inkscape:snap-perpendicular="true"
     inkscape:snap-tangential="true"
     inkscape:window-width="1366"
     inkscape:window-height="704"
     inkscape:window-x="0"
     inkscape:window-y="27"
     inkscape:window-maximized="1">
    <inkscape:grid
       type="xygrid"
       id="grid4764" />
    <sodipodi:guide
       position="0,57"
       orientation="1,0"
       id="guide4768" />
    <sodipodi:guide
       position="17,0"
       orientation="0,1"
       id="guide4772" />
    <sodipodi:guide
       position="40,48"
       orientation="0,1"
       id="guide4150" />
    <sodipodi:guide
       position="3,41"
       orientation="1,0"
       id="guide4154" />
    <sodipodi:guide
       position="7,45"
       orientation="0,1"
       id="guide4156" />
    <sodipodi:guide
       position="24,3"
       orientation="0,1"
       id="guide4160" />
    <sodipodi:guide
       position="45,39"
       orientation="1,0"
       id="guide4143" />
  </sodipodi:namedview>
  <metadata
     id="metadata4221">
    <rdf:RDF>
      <cc:Work
         rdf:about="">
        <dc:format>image/svg+xml</dc:format>
        <dc:type
           rdf:resource="http://purl.org/dc/dcmitype/StillImage" />
        <dc:title />
        <dc:creator>
          <cc:Agent>
            <dc:title>Chris D</dc:title>
          </cc:Agent>
        </dc:creator>
        <dc:description>diazchris.deviantart.com</dc:description>
      </cc:Work>
    </rdf:RDF>
  </metadata>
  <g
     id="layer1"
     inkscape:label="Layer 1"
     inkscape:groupmode="layer"
     transform="translate(0,-16)">
    <circle
       style="opacity:1;fill:#464d56;fill-opacity:1;fill-rule:nonzero;stroke:#b6c1c9;stroke-width:0.5;stroke-linecap:round;stroke-linejoin:round;stroke-miterlimit:4;stroke-dasharray:none;stroke-dashoffset:0;stroke-opacity:1"
       id="path4164"
       cx="24.065496"
       cy="40.002956"
       r="13.110164" />
    <path
       style="font-style:normal;font-variant:normal;font-weight:normal;font-stretch:normal;font-size:medium;line-height:125%;font-family:'Open Sans';-inkscape-font-specification:'Open Sans';letter-spacing:0px;word-spacing:0px;fill:#e0e4e7;fill-opacity:1;stroke:#b6c1c9;stroke-width:0.5;stroke-linecap:butt;stroke-linejoin:miter;stroke-miterlimit:4;stroke-dasharray:none;stroke-opacity:1"
       d="m 24.0655,19.018208 c -0.808342,0 -1.607807,0.04566 -2.397775,0.137574 l -0.715959,5.152127 c -1.230881,0.238828 -2.434934,0.62681 -3.610703,1.159581 l -3.470317,-3.610696 c -1.396224,0.826711 -2.684817,1.828469 -3.860587,3.004237 l 2.316352,4.270511 c -0.863465,0.936942 -1.597788,1.955302 -2.204044,3.057582 L 5.5739957,31.335583 C 4.8942547,32.878781 4.4079346,34.49712 4.1139915,36.18729 l 4.0795863,1.900812 c -0.073484,0.643 -0.1123081,1.276185 -0.1123081,1.900806 0,0.624632 0.038823,1.257823 0.1123081,1.900819 l -4.0795863,1.928891 c 0.2939431,1.671794 0.7802632,3.280429 1.4600042,4.823619 l 4.5484713,-0.853539 c 0.606256,1.120657 1.340579,2.139014 2.204044,3.05759 l -2.316352,4.270505 c 1.17577,1.175769 2.464363,2.18723 3.860587,3.032311 l 3.470317,-3.635969 c 1.175769,0.532773 2.379822,0.927648 3.610703,1.184861 l 0.715959,5.124043 c 0.789968,0.110226 1.589433,0.165651 2.397775,0.165651 0.808339,0 1.607806,-0.05547 2.397775,-0.165651 l 0.715962,-5.124043 c 1.230883,-0.257213 2.43493,-0.652088 3.6107,-1.184861 l 3.470318,3.635969 c 1.396224,-0.845081 2.684817,-1.856542 3.860586,-3.032311 l -2.316352,-4.270505 c 0.863456,-0.936939 1.597788,-1.955297 2.204044,-3.05759 l 4.548472,0.853539 c 0.679742,-1.54319 1.166062,-3.151825 1.460004,-4.823619 l -4.079586,-1.928891 c 0.07346,-0.642996 0.112316,-1.276187 0.112316,-1.900819 0,-0.624621 -0.03889,-1.257806 -0.112316,-1.900806 l 4.079586,-1.900812 c -0.293942,-1.69017 -0.780262,-3.308509 -1.460004,-4.851707 l -4.548472,0.853541 c -0.606256,-1.10228 -1.340588,-2.110936 -2.204044,-3.029505 l 2.316352,-4.298588 c -1.175769,-1.175768 -2.464362,-2.177526 -3.860586,-3.004237 l -3.470318,3.63597 c -1.17577,-0.551145 -2.379817,-0.946023 -3.6107,-1.184851 l -0.715962,-5.152127 c -0.789969,-0.0919 -1.589436,-0.137574 -2.397775,-0.137574 z m 0,8.847061 c 3.343592,0 6.19919,1.191537 8.569098,3.579818 2.369906,2.369911 3.557354,5.228312 3.557354,8.571905 0,3.325216 -1.187448,6.173918 -3.557354,8.543822 -2.369906,2.369908 -5.225506,3.554546 -8.569098,3.554546 -3.343592,0 -6.199193,-1.184638 -8.569097,-3.554546 -2.369904,-2.369904 -3.557355,-5.218606 -3.557355,-8.543822 0,-3.343593 1.187451,-6.201994 3.557355,-8.571905 2.369904,-2.388281 5.225505,-3.579818 8.569097,-3.579818 z m 0,7.934558 A 4.202371,4.202371 0 0 0 19.862373,40.002954 4.202371,4.202371 0 0 0 24.0655,44.20608 4.202371,4.202371 0 0 0 28.268627,40.002954 4.202371,4.202371 0 0 0 24.0655,35.799827 Z"
       id="path4157-0"
       inkscape:connector-curvature="0" />
  </g>
</svg>
