<svg xmlns="http://www.w3.org/2000/svg" xmlns:svg="http://www.w3.org/2000/svg" id="svg4216" width="48" height="48" version="1.1" viewBox="0 0 48 48"><metadata id="metadata4221"/><g id="layer1" transform="translate(0,-16)"><rect style="opacity:1;fill:#fff;fill-opacity:1;fill-rule:nonzero;stroke:#b6c1c9;stroke-width:.44434229;stroke-linecap:round;stroke-linejoin:miter;stroke-miterlimit:4;stroke-dasharray:none;stroke-dashoffset:0;stroke-opacity:1" id="rect4197-3" width="31.986" height="41.986" x="16.294" y="14.129" rx="0" ry="0" transform="matrix(0.9860894,0.16621583,-0.16621583,0.9860894,0,0)"/><rect style="opacity:1;fill:#a9b0b9;fill-opacity:1;fill-rule:nonzero;stroke:none;stroke-width:1;stroke-linecap:round;stroke-linejoin:round;stroke-miterlimit:4;stroke-dasharray:none;stroke-dashoffset:4;stroke-opacity:1" id="rect4148-45" width="26" height="36" x="19.287" y="17.122" transform="matrix(0.9860894,0.16621583,-0.16621583,0.9860894,0,0)"/><path style="fill:#e0e4e7;fill-opacity:1;fill-rule:evenodd;stroke:none;stroke-width:1px;stroke-linecap:butt;stroke-linejoin:miter;stroke-opacity:1" id="path4153-8" d="m 10.188955,55.588603 25.638324,4.321611 0.332432,-1.972179 0.332432,-1.972178 C 38.154301,46.104963 12.515977,41.783351 10.853818,51.644245 l -0.664863,3.944358"/><circle style="opacity:1;fill:#e0e4e7;fill-opacity:1;fill-rule:nonzero;stroke:none;stroke-width:1;stroke-linecap:round;stroke-linejoin:round;stroke-miterlimit:4;stroke-dasharray:none;stroke-dashoffset:4;stroke-opacity:1" id="path4155-7" cx="32.187" cy="32.622" r="6.5" transform="matrix(0.9860894,0.16621583,-0.16621583,0.9860894,0,0)"/><rect style="opacity:1;fill:#fff;fill-opacity:1;fill-rule:nonzero;stroke:#b6c1c9;stroke-width:.44434229;stroke-linecap:round;stroke-linejoin:miter;stroke-miterlimit:4;stroke-dasharray:none;stroke-dashoffset:0;stroke-opacity:1" id="rect4197" width="31.986" height="41.986" x="3.007" y="19.007" rx="0" ry="0"/><rect style="opacity:1;fill:#c8e6fc;fill-opacity:1;fill-rule:nonzero;stroke:none;stroke-width:1;stroke-linecap:round;stroke-linejoin:round;stroke-miterlimit:4;stroke-dasharray:none;stroke-dashoffset:4;stroke-opacity:1" id="rect4148" width="26" height="36" x="6" y="22"/><path style="fill:#8698a6;fill-opacity:1;fill-rule:evenodd;stroke:none;stroke-width:1px;stroke-linecap:butt;stroke-linejoin:miter;stroke-opacity:1" id="path4153" d="m 6,58 26,0 0,-2 0,-2 C 32,44 6,44 6,54 l 0,4"/><circle style="opacity:1;fill:#8698a6;fill-opacity:1;fill-rule:nonzero;stroke:none;stroke-width:1;stroke-linecap:round;stroke-linejoin:round;stroke-miterlimit:4;stroke-dasharray:none;stroke-dashoffset:4;stroke-opacity:1" id="path4155" cx="18.9" cy="37.5" r="6.5"/></g></svg>