<svg xmlns="http://www.w3.org/2000/svg" xmlns:svg="http://www.w3.org/2000/svg" id="svg4216" width="48" height="48" version="1.1" viewBox="0 0 48 48"><metadata id="metadata4221"/><g id="layer1" transform="translate(0,-16)"><rect style="opacity:1;fill:#fff;fill-opacity:1;fill-rule:nonzero;stroke:#b6c1c9;stroke-width:.5;stroke-linecap:square;stroke-linejoin:miter;stroke-miterlimit:4;stroke-dasharray:none;stroke-dashoffset:0;stroke-opacity:1" id="rect4152" width="42" height="32" x="3" y="29"/><path style="opacity:1;fill:#8698a6;fill-opacity:1;fill-rule:nonzero;stroke:none;stroke-width:.5;stroke-linecap:butt;stroke-linejoin:round;stroke-miterlimit:4;stroke-dasharray:none;stroke-dashoffset:2;stroke-opacity:1" id="rect4208" d="M 6 27 L 6 29 L 17 29 L 17 36 L 6 36 L 6 38 L 17 38 L 17 42 L 19 42 L 19 38 L 42 38 L 42 36 L 19 36 L 19 27 L 17 27 L 6 27 z" transform="translate(0,16)"/><path style="opacity:1;fill:#b6c1c9;fill-opacity:1;fill-rule:nonzero;stroke:none;stroke-width:.5;stroke-linecap:butt;stroke-linejoin:round;stroke-miterlimit:4;stroke-dasharray:none;stroke-dashoffset:2;stroke-opacity:1" id="rect4214" d="m 30,16 0,7 7,0 0,5 5,0 0,-5 0,-7 z" transform="translate(0,16)"/><rect style="opacity:1;fill:#b6c1c9;fill-opacity:1;fill-rule:nonzero;stroke:none;stroke-width:.5;stroke-linecap:butt;stroke-linejoin:round;stroke-miterlimit:4;stroke-dasharray:none;stroke-dashoffset:2;stroke-opacity:1" id="rect4223" width="12" height="6" x="30" y="46"/><rect style="opacity:1;fill:#e0e4e7;fill-opacity:1;fill-rule:nonzero;stroke:none;stroke-width:.5;stroke-linecap:butt;stroke-linejoin:round;stroke-miterlimit:4;stroke-dasharray:none;stroke-dashoffset:2;stroke-opacity:1" id="rect4225" width="9" height="4" x="19" y="54"/><path style="opacity:1;fill:#b6c1c9;fill-opacity:1;fill-rule:nonzero;stroke:none;stroke-width:.5;stroke-linecap:butt;stroke-linejoin:round;stroke-miterlimit:4;stroke-dasharray:none;stroke-dashoffset:2;stroke-opacity:1" id="rect4227" d="M 6 23 L 6 27 L 19 27 L 19 36 L 28 36 L 28 27 L 28 23 L 6 23 z" transform="translate(0,16)"/><rect style="opacity:1;fill:#b6c1c9;fill-opacity:1;fill-rule:nonzero;stroke:none;stroke-width:.5;stroke-linecap:butt;stroke-linejoin:round;stroke-miterlimit:4;stroke-dasharray:none;stroke-dashoffset:2;stroke-opacity:1" id="rect4231" width="6" height="5" x="6" y="32"/><rect style="opacity:1;fill:#e0e4e7;fill-opacity:1;fill-rule:nonzero;stroke:none;stroke-width:.5;stroke-linecap:butt;stroke-linejoin:round;stroke-miterlimit:4;stroke-dasharray:none;stroke-dashoffset:2;stroke-opacity:1" id="rect4233" width="11" height="7" x="6" y="45"/><rect style="opacity:1;fill:#e0e4e7;fill-opacity:1;fill-rule:nonzero;stroke:none;stroke-width:.5;stroke-linecap:butt;stroke-linejoin:round;stroke-miterlimit:4;stroke-dasharray:none;stroke-dashoffset:2;stroke-opacity:1" id="rect4235" width="6" height="5" x="13" y="32"/><rect style="opacity:1;fill:#b6c1c9;fill-opacity:1;fill-rule:nonzero;stroke:none;stroke-width:.5;stroke-linecap:butt;stroke-linejoin:round;stroke-miterlimit:4;stroke-dasharray:none;stroke-dashoffset:2;stroke-opacity:1" id="rect4237" width="11" height="4" x="6" y="54"/><rect style="opacity:1;fill:#e0e4e7;fill-opacity:1;fill-rule:nonzero;stroke:none;stroke-width:.5;stroke-linecap:butt;stroke-linejoin:round;stroke-miterlimit:4;stroke-dasharray:none;stroke-dashoffset:2;stroke-opacity:1" id="rect4239" width="12" height="4" x="30" y="54"/><rect style="opacity:1;fill:#b6c1c9;fill-opacity:1;fill-rule:nonzero;stroke:none;stroke-width:.5;stroke-linecap:butt;stroke-linejoin:round;stroke-miterlimit:4;stroke-dasharray:none;stroke-dashoffset:2;stroke-opacity:1" id="rect4243" width="3" height="3" x="21" y="34"/><rect style="opacity:1;fill:#b6c1c9;fill-opacity:1;fill-rule:nonzero;stroke:none;stroke-width:.5;stroke-linecap:butt;stroke-linejoin:round;stroke-miterlimit:4;stroke-dasharray:none;stroke-dashoffset:2;stroke-opacity:1" id="rect4245" width="3" height="5" x="25" y="32"/><g id="g4230" transform="translate(13.475388,0)"><path id="path4201" d="M 10.524612,18.872048 C 7.18034,18.872048 3,21.779184 3,26.396659 c 0,5.016408 5.016408,6.688544 7.524612,17.557427 2.508204,-10.868883 7.524612,-12.541019 7.524612,-17.557427 0,-4.617475 -4.18034,-7.524611 -7.524612,-7.524611 z" style="fill:#e67760;fill-opacity:1;fill-rule:evenodd;stroke:#c4604a;stroke-width:.5;stroke-linecap:round;stroke-linejoin:round;stroke-miterlimit:4;stroke-dasharray:none;stroke-opacity:1"/><circle id="path4211" cx="10.525" cy="26.397" r="4.18" style="opacity:1;fill:#f0afa1;fill-opacity:1;fill-rule:nonzero;stroke:none;stroke-width:.5;stroke-linecap:round;stroke-linejoin:round;stroke-miterlimit:4;stroke-dasharray:none;stroke-dashoffset:0;stroke-opacity:1"/></g></g></svg>