<svg xmlns="http://www.w3.org/2000/svg" xmlns:svg="http://www.w3.org/2000/svg" id="svg4216" width="48" height="48" version="1.1" viewBox="0 0 48 48"><metadata id="metadata4221"/><g id="layer1" transform="translate(0,-16)"><circle style="opacity:1;fill:#fbe865;fill-opacity:1;fill-rule:nonzero;stroke:#fbc342;stroke-width:.5;stroke-linecap:butt;stroke-linejoin:round;stroke-miterlimit:4;stroke-dasharray:none;stroke-dashoffset:2;stroke-opacity:1" id="path4232" cx="15.5" cy="31.5" r="12.5"/><path style="opacity:1;fill:#fff;fill-opacity:1;fill-rule:nonzero;stroke:#cdcefc;stroke-width:.5;stroke-linecap:butt;stroke-linejoin:round;stroke-miterlimit:4;stroke-dasharray:none;stroke-dashoffset:2;stroke-opacity:1" id="path4225" d="M 18.862638,33.928571 A 11.208791,11.208791 0 0 0 7.6538462,45.137362 11.208791,11.208791 0 0 0 7.8818896,47.330228 c -2.8391373,0.894515 -4.8983731,3.546136 -4.8983731,6.680761 0.00428,3.684607 2.8620492,6.73614 6.5384615,6.981777 l 0,0.02372 18.787131,0 9.129035,0 1.973944,0 0,-0.03649 c 1.607354,-0.232001 2.80073,-1.608733 2.802198,-3.232744 -0.0012,-0.109729 -0.0079,-0.219327 -0.02007,-0.328382 1.822533,-2.26653 2.821326,-5.125379 2.822266,-8.078211 0,-6.964251 -5.436543,-12.609891 -12.142857,-12.609891 -1.881204,0.0031 -3.705965,0.463118 -5.348987,1.304408 A 11.208791,11.208791 0 0 0 18.862636,33.92857 Z"/></g></svg>