<svg xmlns="http://www.w3.org/2000/svg" xmlns:svg="http://www.w3.org/2000/svg" id="svg4216" width="48" height="48" version="1.1" viewBox="0 0 48 48"><metadata id="metadata4221"/><g id="layer1" transform="translate(0,-16)"><path style="opacity:1;fill:#fff;fill-opacity:1;fill-rule:nonzero;stroke:#b6c1c9;stroke-width:.5;stroke-linecap:square;stroke-linejoin:round;stroke-miterlimit:4;stroke-dasharray:none;stroke-dashoffset:4;stroke-opacity:1" id="rect4215" d="M 3,3 3,15.25 3,33 15,33 24,45 33,33 45,33 45,3 14.75,3 Z" transform="translate(0,16)"/><path style="fill:none;fill-rule:evenodd;stroke:#b6c1c9;stroke-width:.5;stroke-linecap:butt;stroke-linejoin:miter;stroke-miterlimit:4;stroke-dasharray:none;stroke-opacity:1" id="path4218" d="m 20,31 20,0"/><path style="fill:none;fill-rule:evenodd;stroke:#b6c1c9;stroke-width:.5;stroke-linecap:butt;stroke-linejoin:miter;stroke-miterlimit:4;stroke-dasharray:none;stroke-opacity:1" id="path4220" d="m 20,34 20,0"/><path style="fill:none;fill-rule:evenodd;stroke:#b6c1c9;stroke-width:.5;stroke-linecap:butt;stroke-linejoin:miter;stroke-miterlimit:4;stroke-dasharray:none;stroke-opacity:1" id="path4224" d="m 20,37 10,0"/><circle style="opacity:1;fill:#e67760;fill-opacity:1;fill-rule:nonzero;stroke:#c4604a;stroke-width:.5;stroke-linecap:square;stroke-linejoin:round;stroke-miterlimit:4;stroke-dasharray:none;stroke-dashoffset:4;stroke-opacity:1" id="path4213" cx="13.5" cy="29.5" r="10.5"/><path style="opacity:1;fill:#fff;fill-opacity:1;fill-rule:nonzero;stroke:none;stroke-width:.5;stroke-linecap:butt;stroke-linejoin:miter;stroke-miterlimit:4;stroke-dasharray:none;stroke-dashoffset:0;stroke-opacity:1" id="rect4166-7" d="m 12.099999,22.5 0,3.592967 L 9.5734341,23.537686 7.5828132,25.506459 10.147661,28.1 6.5,28.1 l 0,2.8 3.592966,0 -2.555271,2.526563 1.9687581,1.990619 2.5935459,-2.564832 0,3.64765 2.8,0 0,-3.592967 2.526569,2.555273 1.990598,-1.968752 L 16.852331,30.9 20.5,30.9 l 0,-2.8 -3.592967,0 2.55528,-2.526569 -1.968772,-1.990598 -2.593542,2.564827 0,-3.64766 -2.8,0 z"/></g></svg>