<?xml version="1.0" encoding="UTF-8" standalone="no"?>
<!-- Created with Inkscape (http://www.inkscape.org/) -->

<svg
   xmlns:dc="http://purl.org/dc/elements/1.1/"
   xmlns:cc="http://creativecommons.org/ns#"
   xmlns:rdf="http://www.w3.org/1999/02/22-rdf-syntax-ns#"
   xmlns:svg="http://www.w3.org/2000/svg"
   xmlns="http://www.w3.org/2000/svg"
   xmlns:sodipodi="http://sodipodi.sourceforge.net/DTD/sodipodi-0.dtd"
   xmlns:inkscape="http://www.inkscape.org/namespaces/inkscape"
   width="48"
   height="48"
   id="svg4216"
   version="1.1"
   inkscape:version="0.91 r13725"
   viewBox="0 0 48 48"
   sodipodi:docname="goa-panel.svg">
  <defs
     id="defs4218">
    <inkscape:path-effect
       effect="spiro"
       id="path-effect4242"
       is_visible="true" />
    <inkscape:path-effect
       effect="spiro"
       id="path-effect4238"
       is_visible="true" />
    <inkscape:path-effect
       effect="spiro"
       id="path-effect4234"
       is_visible="true" />
    <inkscape:path-effect
       effect="spiro"
       id="path-effect4230"
       is_visible="true" />
    <inkscape:path-effect
       effect="spiro"
       id="path-effect4226"
       is_visible="true" />
    <inkscape:path-effect
       effect="spiro"
       id="path-effect4222"
       is_visible="true" />
    <inkscape:path-effect
       effect="spiro"
       id="path-effect4218"
       is_visible="true" />
    <inkscape:path-effect
       effect="spiro"
       id="path-effect4214"
       is_visible="true" />
    <inkscape:path-effect
       effect="spiro"
       id="path-effect4210"
       is_visible="true" />
    <inkscape:path-effect
       effect="spiro"
       id="path-effect4206"
       is_visible="true" />
    <inkscape:path-effect
       effect="spiro"
       id="path-effect4202"
       is_visible="true" />
    <inkscape:path-effect
       effect="spiro"
       id="path-effect4198"
       is_visible="true" />
    <inkscape:path-effect
       effect="spiro"
       id="path-effect4194"
       is_visible="true" />
  </defs>
  <sodipodi:namedview
     id="base"
     pagecolor="#242424"
     bordercolor="#666666"
     borderopacity="1.0"
     inkscape:pageopacity="0"
     inkscape:pageshadow="2"
     inkscape:zoom="7.7781746"
     inkscape:cx="11.481379"
     inkscape:cy="15.281207"
     inkscape:current-layer="layer1"
     showgrid="false"
     inkscape:document-units="px"
     inkscape:grid-bbox="true"
     showguides="false"
     inkscape:guide-bbox="true"
     objecttolerance="10000"
     guidetolerance="10000"
     inkscape:snap-path-clip="true"
     inkscape:snap-perpendicular="true"
     inkscape:snap-tangential="true"
     inkscape:window-width="1366"
     inkscape:window-height="704"
     inkscape:window-x="0"
     inkscape:window-y="27"
     inkscape:window-maximized="1">
    <inkscape:grid
       type="xygrid"
       id="grid4764" />
    <sodipodi:guide
       position="17,0"
       orientation="0,1"
       id="guide4772" />
    <sodipodi:guide
       position="40,48"
       orientation="0,1"
       id="guide4150" />
    <sodipodi:guide
       position="3,41"
       orientation="1,0"
       id="guide4154" />
    <sodipodi:guide
       position="7,45"
       orientation="0,1"
       id="guide4156" />
    <sodipodi:guide
       position="24,3"
       orientation="0,1"
       id="guide4160" />
    <sodipodi:guide
       position="45,25"
       orientation="1,0"
       id="guide4146" />
    <sodipodi:guide
       position="22,22"
       orientation="-0.70710678,0.70710678"
       id="guide4184" />
    <sodipodi:guide
       position="24,22"
       orientation="1,0"
       id="guide4186" />
    <sodipodi:guide
       position="23,24"
       orientation="0,1"
       id="guide4188" />
    <sodipodi:guide
       position="37,37"
       orientation="1,0"
       id="guide4190" />
    <sodipodi:guide
       position="11,38"
       orientation="1,0"
       id="guide4192" />
    <sodipodi:guide
       position="24,24"
       orientation="0.70710678,0.70710678"
       id="guide4165" />
    <sodipodi:guide
       position="16,17"
       orientation="0,1"
       id="guide4189" />
    <sodipodi:guide
       position="23,10"
       orientation="0,1"
       id="guide4195" />
    <sodipodi:guide
       position="16,31"
       orientation="0,1"
       id="guide4235" />
  </sodipodi:namedview>
  <metadata
     id="metadata4221">
    <rdf:RDF>
      <cc:Work
         rdf:about="">
        <dc:format>image/svg+xml</dc:format>
        <dc:type
           rdf:resource="http://purl.org/dc/dcmitype/StillImage" />
        <dc:title />
        <dc:creator>
          <cc:Agent>
            <dc:title>Chris D</dc:title>
          </cc:Agent>
        </dc:creator>
        <dc:description>diazchris.deviantart.com</dc:description>
      </cc:Work>
    </rdf:RDF>
  </metadata>
  <g
     id="layer1"
     inkscape:label="Layer 1"
     inkscape:groupmode="layer"
     transform="translate(0,-16)">
    <path
       style="opacity:1;fill:#ffffff;fill-opacity:1;fill-rule:nonzero;stroke:#b6c1c9;stroke-width:0.5;stroke-linecap:square;stroke-linejoin:round;stroke-miterlimit:4;stroke-dasharray:none;stroke-dashoffset:4;stroke-opacity:1"
       d="m 22.5,33.000001 c -4.105613,0.0041 -7.83221,2.400769 -9.539062,6.134766 -0.482185,-0.08694 -0.970985,-0.132034 -1.460938,-0.134766 -4.6944204,0 -8.5,3.80558 -8.5,8.5 0.00565,4.496096 3.5116856,8.210136 8,8.474609 L 11,56 l 0.5,0 28.5,0 0,-0.02734 c 2.830308,-0.25837 4.99764,-2.630583 5,-5.472659 0,-3.037566 -2.462434,-5.5 -5.5,-5.5 -0.242478,0.0022 -0.484542,0.02051 -0.724609,0.05469 -0.79273,-3.564679 -3.660854,-6.296998 -7.259766,-6.916018 C 29.625991,34.956665 26.200793,33.004391 22.5,33.000001 Z"
       id="path4164"
       inkscape:connector-curvature="0"
       sodipodi:nodetypes="cccccccccccccc" />
    <circle
       style="opacity:1;fill:#99cef3;fill-opacity:1;fill-rule:nonzero;stroke:#6caace;stroke-width:0.5;stroke-linecap:square;stroke-linejoin:round;stroke-miterlimit:4;stroke-dasharray:none;stroke-dashoffset:4;stroke-opacity:1"
       id="path4233"
       cx="34.5"
       cy="50.5"
       r="10.5" />
    <g
       style="font-style:normal;font-variant:normal;font-weight:bold;font-stretch:normal;font-size:27.5px;line-height:125%;font-family:'Open Sans';-inkscape-font-specification:'Open Sans Bold';letter-spacing:0px;word-spacing:0px;fill:#ffffff;fill-opacity:1;stroke:none;stroke-width:1.12096334;stroke-linecap:butt;stroke-linejoin:miter;stroke-miterlimit:4;stroke-dasharray:none;stroke-opacity:1;opacity:1"
       id="text4170"
       transform="matrix(0.58971615,0,0,0.58971615,29.379576,34.741506)">
      <path
         d="m 6.1584473,26.762451 q 0,1.651611 0.6982422,2.604981 0.7116699,0.953369 1.920166,0.953369 1.1950683,0 1.9067385,-0.953369 0.71167,-0.966797 0.71167,-2.604981 0,-1.624756 -0.725098,-2.564697 Q 9.9584961,23.244385 8.75,23.244385 q -1.1816406,0 -1.8933105,0.953369 -0.6982422,0.939941 -0.6982422,2.564697 z m 5.5053707,4.041748 q -0.402832,0.953369 -1.30249,1.490479 -0.8862303,0.523681 -2.0812987,0.523681 -2.3095703,0 -3.7597656,-1.665039 -1.4367676,-1.678466 -1.4367676,-4.364013 0,-2.685547 1.4501953,-4.364014 1.4501953,-1.678467 3.7463379,-1.678467 1.1950684,0 2.0812987,0.53711 0.899658,0.537109 1.30249,1.490478 l 0,-1.759033 2.806397,0 0,9.30542 q 1.665039,-0.255127 2.618408,-1.597901 0.953369,-1.356201 0.953369,-3.464355 0,-1.342774 -0.389404,-2.510986 -0.389404,-1.181641 -1.181641,-2.161866 -1.275634,-1.638183 -3.195801,-2.524414 -1.906738,-0.88623 -4.1357417,-0.88623 -1.5576172,0 -2.980957,0.41626 -1.4233399,0.402832 -2.631836,1.195068 -1.9873047,1.315918 -3.10180661,3.410644 -1.10107422,2.081299 -1.10107422,4.511719 0,2.000733 0.71166992,3.759766 0.72509766,1.745605 2.08129881,3.088379 1.3427735,1.315918 3.0749512,2.000732 1.7456055,0.698242 3.7194824,0.698242 1.6918942,0 3.3837892,-0.631103 1.691894,-0.631104 2.886963,-1.705322 l 1.436767,2.175293 q -1.678466,1.30249 -3.665771,1.987304 -1.973877,0.698242 -4.0148927,0.698242 -2.4841309,0 -4.6862793,-0.88623 Q 2.0495605,37.02124 0.33081055,35.342773 -1.3879395,33.664307 -2.2875977,31.462158 -3.1872559,29.246582 -3.1872559,26.70874 q 0,-2.443847 0.913086,-4.659424 0.9130859,-2.215576 2.60498045,-3.894043 1.69189455,-1.665039 3.93432615,-2.578125 2.2558594,-0.913085 4.6728516,-0.913085 3.0078127,0 5.4650877,1.154785 2.457276,1.141357 4.108887,3.303222 1.00708,1.315918 1.517334,2.860108 0.523682,1.530761 0.523682,3.222656 0,3.638916 -2.188721,5.653076 -2.188721,2.01416 -6.176758,2.01416 l -0.523682,0 0,-2.067871 z"
         id="path4175"
         inkscape:connector-curvature="0"
         style="fill:#ffffff;stroke:none;stroke-width:1.12096334;stroke-miterlimit:4;stroke-dasharray:none" />
    </g>
  </g>
</svg>
