<svg xmlns="http://www.w3.org/2000/svg" xmlns:svg="http://www.w3.org/2000/svg" id="svg4216" width="48" height="48" version="1.1" viewBox="0 0 48 48"><metadata id="metadata4221"/><g id="layer1" transform="translate(0,-16)"><path style="opacity:1;fill:#1a1d20;fill-opacity:1;fill-rule:nonzero;stroke:#13151a;stroke-width:.5;stroke-linecap:round;stroke-linejoin:miter;stroke-miterlimit:4;stroke-dasharray:none;stroke-dashoffset:0;stroke-opacity:1" id="rect4197" d="M 3 3 L 3 45 L 45 45 L 45 3 L 3 3 z M 6 6 L 10 6 L 10 10 L 6 10 L 6 6 z M 38 6 L 42 6 L 42 10 L 38 10 L 38 6 z M 6 14 L 10 14 L 10 18 L 6 18 L 6 14 z M 38 14 L 42 14 L 42 18 L 38 18 L 38 14 z M 6 22 L 10 22 L 10 26 L 6 26 L 6 22 z M 38 22 L 42 22 L 42 26 L 38 26 L 38 22 z M 6 30 L 10 30 L 10 34 L 6 34 L 6 30 z M 38 30 L 42 30 L 42 34 L 38 34 L 38 30 z M 6 38 L 10 38 L 10 42 L 6 42 L 6 38 z M 38 38 L 42 38 L 42 42 L 38 42 L 38 38 z" transform="translate(0,16)"/><path style="fill:#fff;fill-rule:evenodd;stroke:#e0e4e7;stroke-width:.5;stroke-linecap:butt;stroke-linejoin:miter;stroke-miterlimit:4;stroke-dasharray:none;stroke-opacity:1" id="path4150" d="m 15,27.8 18,11.999871 -18,12 z"/></g></svg>