<svg xmlns="http://www.w3.org/2000/svg" xmlns:svg="http://www.w3.org/2000/svg" id="svg4216" width="48" height="48" version="1.1" viewBox="0 0 48 48"><metadata id="metadata4221"/><g id="layer1" transform="translate(0,-16)"><rect style="opacity:1;fill:#fff;fill-opacity:1;fill-rule:nonzero;stroke:#1a1d20;stroke-width:.5;stroke-linecap:butt;stroke-linejoin:miter;stroke-miterlimit:4;stroke-dasharray:none;stroke-dashoffset:0;stroke-opacity:1" id="rect4199" width="42" height="42" x="3" y="19" rx="0" ry="0"/><path style="fill:#fbe865;fill-rule:evenodd;stroke:none;stroke-width:1px;stroke-linecap:butt;stroke-linejoin:miter;stroke-opacity:1;fill-opacity:1" id="path4163" d="M 3,19 24,19 13.5,29.5 Z"/><path style="fill:#fc955b;fill-rule:evenodd;stroke:none;stroke-width:1px;stroke-linecap:butt;stroke-linejoin:miter;stroke-opacity:1;fill-opacity:1" id="path4165" d="M 24,19 45,19 34.5,29.5 Z"/><path style="fill:#b7f7b8;fill-rule:evenodd;stroke:none;stroke-width:1px;stroke-linecap:butt;stroke-linejoin:miter;stroke-opacity:1;fill-opacity:1" id="path4167" d="M 3,19 3,40 13.5,29.5 Z"/><path style="fill:#e67760;fill-rule:evenodd;stroke:none;stroke-width:1px;stroke-linecap:butt;stroke-linejoin:miter;stroke-opacity:1;fill-opacity:1" id="path4169" d="M 45,19 45,40 34.5,29.5 45,19"/><path style="fill:#ace6fc;fill-rule:evenodd;stroke:none;stroke-width:1px;stroke-linecap:butt;stroke-linejoin:miter;stroke-opacity:1;fill-opacity:1" id="path4171" d="M 3,40 3,61 13.5,50.5 Z"/><path style="fill:#a29acd;fill-rule:evenodd;stroke:none;stroke-width:1px;stroke-linecap:butt;stroke-linejoin:miter;stroke-opacity:1;fill-opacity:1" id="path4173" d="M 45,40 45,61 34.5,50.5 45,40"/><path style="fill:#99cef3;fill-rule:evenodd;stroke:none;stroke-width:1px;stroke-linecap:butt;stroke-linejoin:miter;stroke-opacity:1;fill-opacity:1" id="path4175" d="M 3,61 13.5,50.5 24,61 Z"/><path style="fill:#8990c9;fill-rule:evenodd;stroke:none;stroke-width:1px;stroke-linecap:butt;stroke-linejoin:miter;stroke-opacity:1;fill-opacity:1" id="path4177" d="M 24,61 34.5,50.5 45,61 Z"/><path style="fill:#6acb9c;fill-rule:evenodd;stroke:none;stroke-width:1px;stroke-linecap:butt;stroke-linejoin:miter;stroke-opacity:1;fill-opacity:1" id="path4179" d="M 13.5 13.5 L 3 24 L 13.5 34.5 L 24 24 L 13.5 13.5 z" transform="translate(0,16)"/><path style="fill:#c4604a;fill-rule:evenodd;stroke:none;stroke-width:1px;stroke-linecap:butt;stroke-linejoin:miter;stroke-opacity:1;fill-opacity:1" id="path4181" d="M 34.5 13.5 L 24 24 L 34.5 34.5 L 45 24 L 34.5 13.5 z" transform="translate(0,16)"/><path style="fill:#fbc342;fill-rule:evenodd;stroke:none;stroke-width:1px;stroke-linecap:butt;stroke-linejoin:miter;stroke-opacity:1;fill-opacity:1" id="path4183" d="M 24 3 L 13.5 13.5 L 24 24 L 34.5 13.5 L 24 3 z" transform="translate(0,16)"/><path style="fill:#6caace;fill-rule:evenodd;stroke:none;stroke-width:1px;stroke-linecap:butt;stroke-linejoin:miter;stroke-opacity:1;fill-opacity:1" id="path4185" d="M 24 24 L 13.5 34.5 L 24 45 L 34.5 34.5 L 24 24 z" transform="translate(0,16)"/></g></svg>